<?xml version="1.0" encoding="UTF-8"?>
<svg width="64" height="64" version="1.1" viewBox="0 0 64 64" xmlns="http://www.w3.org/2000/svg"><g display="none"><g display="inline"><path x="64" y="64" width="384" height="384" rx="4" ry="4" d="m68 64h376c2.216 0 4 1.784 4 4v376c0 2.216-1.784 4-4 4h-376c-2.216 0-4-1.784-4-4v-376c0-2.216 1.784-4 4-4z" fill="#ccc"/></g><g display="none"><rect x="64" y="64" width="128" height="384" rx="4" ry="4" display="inline" fill="#f2f2f2"/><g display="inline"><rect x="320" y="64" width="128" height="384" rx="4" ry="4" display="inline" fill="#f2f2f2"/></g><g transform="matrix(1 0 0 .33333 -128 170.67)" display="inline"><rect x="320" y="64" width="128" height="384" rx="4" ry="4" display="inline" fill="#f2f2f2"/></g><g transform="matrix(1 0 0 .33333 -128 42.667)" display="inline"><rect x="320" y="64" width="128" height="384" rx="4" ry="4" display="inline" fill="#f2f2f2"/></g><g transform="matrix(1 0 0 .33333 -128 170.67)" display="inline"><rect x="320" y="448" width="128" height="384" rx="4" ry="4" display="inline" fill="#f2f2f2"/></g></g><rect x="64" y="64" width="120" height="384" rx="4" ry="4" display="inline" fill="#f2f2f2"/><g display="inline"><rect x="328" y="64" width="120" height="384" rx="4" ry="4" display="inline" fill="#f2f2f2"/></g><g transform="matrix(1 0 0 .3125 -128 176)" display="inline"><path x="320" y="64" width="128" height="384" rx="4" ry="12.8" d="m324 64h120c2.216 0 4 5.7088 4 12.8v358.4c0 7.0912-1.784 12.8-4 12.8h-120c-2.216 0-4-5.7088-4-12.8v-358.4c0-7.0912 1.784-12.8 4-12.8z" display="inline" fill="#f2f2f2"/></g><g transform="matrix(1 0 0 .3125 -128 48)" display="inline"><path x="320" y="64" width="128" height="384" rx="4" ry="12.8" d="m324 64h120c2.216 0 4 5.7088 4 12.8v358.4c0 7.0912-1.784 12.8-4 12.8h-120c-2.216 0-4-5.7088-4-12.8v-358.4c0-7.0912 1.784-12.8 4-12.8z" display="inline" fill="#f2f2f2"/></g><g transform="matrix(1 0 0 .33333 -128 174.67)" display="inline"><rect x="320" y="448" width="128" height="360" rx="4" ry="12" display="inline" fill="#f2f2f2" stroke-width="1.8009"/></g><g display="inline"><path x="64" y="64" width="384" height="384" rx="4" ry="4" d="m68 64h376c2.216 0 4 1.784 4 4v376c0 2.216-1.784 4-4 4h-376c-2.216 0-4-1.784-4-4v-376c0-2.216 1.784-4 4-4z" fill="#ccc"/></g><g display="none"><rect x="64" y="64" width="128" height="384" rx="4" ry="4" display="inline" fill="#f2f2f2"/><g display="inline"><rect x="320" y="64" width="128" height="384" rx="4" ry="4" display="inline" fill="#f2f2f2"/></g><g transform="matrix(1 0 0 .33333 -128 170.67)" display="inline"><rect x="320" y="64" width="128" height="384" rx="4" ry="4" display="inline" fill="#f2f2f2"/></g><g transform="matrix(1 0 0 .33333 -128 42.667)" display="inline"><rect x="320" y="64" width="128" height="384" rx="4" ry="4" display="inline" fill="#f2f2f2"/></g><g transform="matrix(1 0 0 .33333 -128 170.67)" display="inline"><rect x="320" y="448" width="128" height="384" rx="4" ry="4" display="inline" fill="#f2f2f2"/></g></g><rect x="64" y="64" width="120" height="384" rx="4" ry="4" display="inline" fill="#f2f2f2"/><g display="inline"><rect x="328" y="64" width="120" height="384" rx="4" ry="4" display="inline" fill="#f2f2f2"/></g><g><g transform="matrix(1 0 0 .3125 -128 176)" display="inline"><path x="320" y="64" width="128" height="384" rx="4" ry="12.8" d="m324 64h120c2.216 0 4 5.7088 4 12.8v358.4c0 7.0912-1.784 12.8-4 12.8h-120c-2.216 0-4-5.7088-4-12.8v-358.4c0-7.0912 1.784-12.8 4-12.8z" display="inline" fill="#666"/><path transform="matrix(.65625 0 0 1 110 0)" x="320" y="64" width="128" height="384" rx="6.0952382" ry="12.8" d="m326.1 64h115.81c3.3768 0 6.0952 5.7088 6.0952 12.8v358.4c0 7.0912-2.7185 12.8-6.0952 12.8h-115.81c-3.3768 0-6.0952-5.7088-6.0952-12.8v-358.4c0-7.0912 2.7185-12.8 6.0952-12.8z" display="inline" fill="#eee"/><path transform="matrix(.32812 0 0 1 215 0)" x="320" y="64" width="128" height="384" rx="12.190476" ry="12.8" d="m332.19 64h103.62c6.7535 0 12.19 5.7088 12.19 12.8v358.4c0 7.0912-5.437 12.8-12.19 12.8h-103.62c-6.7535 0-12.19-5.7088-12.19-12.8v-358.4c0-7.0912 5.437-12.8 12.19-12.8z" display="inline" fill="#999"/><path transform="matrix(1 0 0 .86667 0 59.733)" x="320" y="64" width="128" height="384" rx="4" ry="12.8" d="m324 64h120c2.216 0 4 5.7088 4 12.8v358.4c0 7.0912-1.784 12.8-4 12.8h-120c-2.216 0-4-5.7088-4-12.8v-358.4c0-7.0912 1.784-12.8 4-12.8z" display="inline" fill="#eee"/></g><g transform="matrix(1 0 0 .3125 -128 48)" display="inline"><path x="320" y="64" width="128" height="384" rx="4" ry="12.8" d="m324 64h120c2.216 0 4 5.7088 4 12.8v358.4c0 7.0912-1.784 12.8-4 12.8h-120c-2.216 0-4-5.7088-4-12.8v-358.4c0-7.0912 1.784-12.8 4-12.8z" display="inline" fill="#666"/><path transform="matrix(.65625 0 0 1 110 0)" x="320" y="64" width="128" height="384" rx="6.0952382" ry="12.8" d="m326.1 64h115.81c3.3768 0 6.0952 5.7088 6.0952 12.8v358.4c0 7.0912-2.7185 12.8-6.0952 12.8h-115.81c-3.3768 0-6.0952-5.7088-6.0952-12.8v-358.4c0-7.0912 2.7185-12.8 6.0952-12.8z" display="inline" fill="#999"/><path transform="matrix(.32812 0 0 1 215 0)" x="320" y="64" width="128" height="384" rx="12.190476" ry="12.8" d="m332.19 64h103.62c6.7535 0 12.19 5.7088 12.19 12.8v358.4c0 7.0912-5.437 12.8-12.19 12.8h-103.62c-6.7535 0-12.19-5.7088-12.19-12.8v-358.4c0-7.0912 5.437-12.8 12.19-12.8z" display="inline" fill="#eee"/><path transform="matrix(1 0 0 .86667 0 59.733)" x="320" y="64" width="128" height="384" rx="4" ry="12.8" d="m324 64h120c2.216 0 4 5.7088 4 12.8v358.4c0 7.0912-1.784 12.8-4 12.8h-120c-2.216 0-4-5.7088-4-12.8v-358.4c0-7.0912 1.784-12.8 4-12.8z" display="inline" fill="#eee"/></g><g transform="matrix(1 0 0 .33333 -128 174.67)" display="inline"><rect x="320" y="448" width="128" height="360" rx="4" ry="12" display="inline" fill="#666" stroke-width="1.8009"/><path transform="matrix(1 0 0 .9375 0 388)" x="320" y="64" width="128" height="384" rx="4" ry="12.8" d="m324 64h120c2.216 0 4 5.7088 4 12.8v358.4c0 7.0912-1.784 12.8-4 12.8h-120c-2.216 0-4-5.7088-4-12.8v-358.4c0-7.0912 1.784-12.8 4-12.8z" display="inline" fill="#eee"/><path transform="matrix(.65625 0 0 .9375 110 388)" x="320" y="64" width="128" height="384" rx="6.0952382" ry="12.8" d="m326.1 64h115.81c3.3768 0 6.0952 5.7088 6.0952 12.8v358.4c0 7.0912-2.7185 12.8-6.0952 12.8h-115.81c-3.3768 0-6.0952-5.7088-6.0952-12.8v-358.4c0-7.0912 2.7185-12.8 6.0952-12.8z" display="inline" fill="#999"/><path transform="matrix(.32812 0 0 .9375 215 388)" x="320" y="64" width="128" height="384" rx="12.190476" ry="12.8" d="m332.19 64h103.62c6.7535 0 12.19 5.7088 12.19 12.8v358.4c0 7.0912-5.437 12.8-12.19 12.8h-103.62c-6.7535 0-12.19-5.7088-12.19-12.8v-358.4c0-7.0912 5.437-12.8 12.19-12.8z" display="inline" fill="#666"/><path transform="matrix(1 0 0 .8125 0 444)" x="320" y="64" width="128" height="384" rx="4" ry="12.8" d="m324 64h120c2.216 0 4 5.7088 4 12.8v358.4c0 7.0912-1.784 12.8-4 12.8h-120c-2.216 0-4-5.7088-4-12.8v-358.4c0-7.0912 1.784-12.8 4-12.8z" display="inline" fill="#eee"/></g></g><g display="inline"><path transform="matrix(1.1667 0 0 1.1667 -42.667 -42.667)" x="64" y="64" width="384" height="384" rx="10.075714" ry="13.714285" d="m74.076 64h363.85c5.5819 0 10.076 6.1166 10.076 13.714v356.57c0 7.5977-4.4938 13.714-10.076 13.714h-363.85c-5.5819 0-10.076-6.1166-10.076-13.714v-356.57c0-7.5977 4.4938-13.714 10.076-13.714z" fill="#ccc"/></g><rect x="48" y="48" width="120" height="416" rx="4" ry="4.3333" display="inline" fill="#f5f5f5" stroke-width="1.0408"/><g display="inline"><rect x="344" y="48" width="120" height="416" rx="4" ry="4.3333" display="inline" fill="#f5f5f5" stroke-width="1.0408"/></g><g><g transform="matrix(1 0 0 .33333 -128 170.67)" display="inline"><path transform="matrix(1.125,0,0,1,-48,0)" x="320" y="64" width="128" height="384" rx="4" ry="12.8" d="m324 64h120c2.216 0 4 5.7088 4 12.8v358.4c0 7.0912-1.784 12.8-4 12.8h-120c-2.216 0-4-5.7088-4-12.8v-358.4c0-7.0912 1.784-12.8 4-12.8z" display="inline" fill="#666"/><path transform="matrix(.75 0 0 1 72 0)" x="320" y="64" width="128" height="384" rx="6.0952382" ry="12.8" d="m326.1 64h115.81c3.3768 0 6.0952 5.7088 6.0952 12.8v358.4c0 7.0912-2.7185 12.8-6.0952 12.8h-115.81c-3.3768 0-6.0952-5.7088-6.0952-12.8v-358.4c0-7.0912 2.7185-12.8 6.0952-12.8z" display="inline" fill="#f5f5f5"/><path transform="matrix(.375 0 0 1 192 0)" x="320" y="64" width="128" height="384" rx="12.190476" ry="12.8" d="m332.19 64h103.62c6.7535 0 12.19 5.7088 12.19 12.8v358.4c0 7.0912-5.437 12.8-12.19 12.8h-103.62c-6.7535 0-12.19-5.7088-12.19-12.8v-358.4c0-7.0912 5.437-12.8 12.19-12.8z" display="inline" fill="#999"/><path transform="matrix(1.125 0 0 .8125 -48 84)" x="320" y="64" width="128" height="384" rx="4" ry="12.8" d="m324 64h120c2.216 0 4 5.7088 4 12.8v358.4c0 7.0912-1.784 12.8-4 12.8h-120c-2.216 0-4-5.7088-4-12.8v-358.4c0-7.0912 1.784-12.8 4-12.8z" display="inline" fill="#f5f5f5"/></g><g transform="matrix(1 0 0 .33333 -128 26.667)" display="inline"><path transform="matrix(1.125 0 0 1 -48 -3.6e-7)" x="320" y="64" width="128" height="384" rx="4" ry="12.8" d="m324 64h120c2.216 0 4 5.7088 4 12.8v358.4c0 7.0912-1.784 12.8-4 12.8h-120c-2.216 0-4-5.7088-4-12.8v-358.4c0-7.0912 1.784-12.8 4-12.8z" display="inline" fill="#666"/><path transform="matrix(.75 0 0 1 72 0)" x="320" y="64" width="128" height="384" rx="6.0952382" ry="12.8" d="m326.1 64h115.81c3.3768 0 6.0952 5.7088 6.0952 12.8v358.4c0 7.0912-2.7185 12.8-6.0952 12.8h-115.81c-3.3768 0-6.0952-5.7088-6.0952-12.8v-358.4c0-7.0912 2.7185-12.8 6.0952-12.8z" display="inline" fill="#999"/><path transform="matrix(.375 0 0 1 192 0)" x="320" y="64" width="128" height="384" rx="12.190476" ry="12.8" d="m332.19 64h103.62c6.7535 0 12.19 5.7088 12.19 12.8v358.4c0 7.0912-5.437 12.8-12.19 12.8h-103.62c-6.7535 0-12.19-5.7088-12.19-12.8v-358.4c0-7.0912 5.437-12.8 12.19-12.8z" display="inline" fill="#f5f5f5"/><path transform="matrix(1.125 0 0 .8125 -48 84)" x="320" y="64" width="128" height="384" rx="4" ry="12.8" d="m324 64h120c2.216 0 4 5.7088 4 12.8v358.4c0 7.0912-1.784 12.8-4 12.8h-120c-2.216 0-4-5.7088-4-12.8v-358.4c0-7.0912 1.784-12.8 4-12.8z" display="inline" fill="#f5f5f5"/></g><g transform="matrix(1 0 0 .35556 -128 176.71)" display="inline"><rect x="312" y="448" width="144" height="360" rx="4.5" ry="12" display="inline" fill="#666" stroke-width="1.9101"/><path transform="matrix(1.125 0 0 .9375 -48 388)" x="320" y="64" width="128" height="384" rx="4" ry="12.8" d="m324 64h120c2.216 0 4 5.7088 4 12.8v358.4c0 7.0912-1.784 12.8-4 12.8h-120c-2.216 0-4-5.7088-4-12.8v-358.4c0-7.0912 1.784-12.8 4-12.8z" display="inline" fill="#f5f5f5"/><path transform="matrix(.75 0 0 .9375 72 388)" x="320" y="64" width="128" height="384" rx="6.0952382" ry="12.8" d="m326.1 64h115.81c3.3768 0 6.0952 5.7088 6.0952 12.8v358.4c0 7.0912-2.7185 12.8-6.0952 12.8h-115.81c-3.3768 0-6.0952-5.7088-6.0952-12.8v-358.4c0-7.0912 2.7185-12.8 6.0952-12.8z" display="inline" fill="#999"/><path transform="matrix(.375 0 0 .9375 192 388)" x="320" y="64" width="128" height="384" rx="12.190476" ry="12.8" d="m332.19 64h103.62c6.7535 0 12.19 5.7088 12.19 12.8v358.4c0 7.0912-5.437 12.8-12.19 12.8h-103.62c-6.7535 0-12.19-5.7088-12.19-12.8v-358.4c0-7.0912 5.437-12.8 12.19-12.8z" display="inline" fill="#666"/><path transform="matrix(1.125 0 0 .76172 -48 466.75)" x="320" y="64" width="128" height="384" rx="4" ry="12.8" d="m324 64h120c2.216 0 4 5.7088 4 12.8v358.4c0 7.0912-1.784 12.8-4 12.8h-120c-2.216 0-4-5.7088-4-12.8v-358.4c0-7.0912 1.784-12.8 4-12.8z" display="inline" fill="#f5f5f5"/></g></g><g display="none"><path transform="matrix(1.1667 0 0 1.1667 -42.667 -42.667)" x="64" y="64" width="384" height="384" rx="10.075714" ry="13.714285" d="m74.076 64h363.85c5.5819 0 10.076 6.1166 10.076 13.714v356.57c0 7.5977-4.4938 13.714-10.076 13.714h-363.85c-5.5819 0-10.076-6.1166-10.076-13.714v-356.57c0-7.5977 4.4938-13.714 10.076-13.714z" fill="#ccc"/><path transform="matrix(1.1667 0 0 1.1667 -42.667 -42.667)" x="64" y="64" width="384" height="384" rx="10.075714" ry="13.714285" d="m74.076 64h363.85c5.5819 0 10.076 6.1166 10.076 13.714v356.57c0 7.5977-4.4938 13.714-10.076 13.714h-363.85c-5.5819 0-10.076-6.1166-10.076-13.714v-356.57c0-7.5977 4.4938-13.714 10.076-13.714z" display="none" fill="#666"/></g><rect x="32" y="32" width="120" height="448" rx="4" ry="4.6667" display="inline" fill="#f5f5f5" stroke-width="1.0801"/><g display="inline"><rect x="360" y="32" width="120" height="448" rx="4" ry="4.6667" display="inline" fill="#f5f5f5" stroke-width="1.0801"/></g><g><g transform="matrix(1 0 0 .35556 -128 192.71)" display="inline"><rect x="312" y="448" width="144" height="360" rx="4.5" ry="12" display="inline" fill="#666" stroke-width="1.9101"/><path transform="matrix(1.125 0 0 .9375 -48 388)" x="320" y="64" width="128" height="384" rx="4" ry="12.8" d="m324 64h120c2.216 0 4 5.7088 4 12.8v358.4c0 7.0912-1.784 12.8-4 12.8h-120c-2.216 0-4-5.7088-4-12.8v-358.4c0-7.0912 1.784-12.8 4-12.8z" display="inline" fill="#f5f5f5"/><path transform="matrix(.75 0 0 .9375 72 388)" x="320" y="64" width="128" height="384" rx="6.0952382" ry="12.8" d="m326.1 64h115.81c3.3768 0 6.0952 5.7088 6.0952 12.8v358.4c0 7.0912-2.7185 12.8-6.0952 12.8h-115.81c-3.3768 0-6.0952-5.7088-6.0952-12.8v-358.4c0-7.0912 2.7185-12.8 6.0952-12.8z" display="inline" fill="#999"/><path transform="matrix(.375 0 0 .9375 192 388)" x="320" y="64" width="128" height="384" rx="12.190476" ry="12.8" d="m332.19 64h103.62c6.7535 0 12.19 5.7088 12.19 12.8v358.4c0 7.0912-5.437 12.8-12.19 12.8h-103.62c-6.7535 0-12.19-5.7088-12.19-12.8v-358.4c0-7.0912 5.437-12.8 12.19-12.8z" display="inline" fill="#666"/><path transform="matrix(1.125 0 0 .70312 -48 493)" x="320" y="64" width="128" height="384" rx="4" ry="12.8" d="m324 64h120c2.216 0 4 5.7088 4 12.8v358.4c0 7.0912-1.784 12.8-4 12.8h-120c-2.216 0-4-5.7088-4-12.8v-358.4c0-7.0912 1.784-12.8 4-12.8z" display="inline" fill="#f5f5f5"/></g><g transform="matrix(1 0 0 .33333 -128 170.67)" display="inline"><path transform="matrix(1.125,0,0,1,-48,0)" x="320" y="64" width="128" height="384" rx="4" ry="12.8" d="m324 64h120c2.216 0 4 5.7088 4 12.8v358.4c0 7.0912-1.784 12.8-4 12.8h-120c-2.216 0-4-5.7088-4-12.8v-358.4c0-7.0912 1.784-12.8 4-12.8z" display="inline" fill="#666"/><path transform="matrix(.75 0 0 1 72 0)" x="320" y="64" width="128" height="384" rx="6.0952382" ry="12.8" d="m326.1 64h115.81c3.3768 0 6.0952 5.7088 6.0952 12.8v358.4c0 7.0912-2.7185 12.8-6.0952 12.8h-115.81c-3.3768 0-6.0952-5.7088-6.0952-12.8v-358.4c0-7.0912 2.7185-12.8 6.0952-12.8z" display="inline" fill="#f5f5f5"/><path transform="matrix(.375 0 0 1 192 0)" x="320" y="64" width="128" height="384" rx="12.190476" ry="12.8" d="m332.19 64h103.62c6.7535 0 12.19 5.7088 12.19 12.8v358.4c0 7.0912-5.437 12.8-12.19 12.8h-103.62c-6.7535 0-12.19-5.7088-12.19-12.8v-358.4c0-7.0912 5.437-12.8 12.19-12.8z" display="inline" fill="#999"/><path transform="matrix(1.125 0 0 .75 -48 112)" x="320" y="64" width="128" height="384" rx="4" ry="12.8" d="m324 64h120c2.216 0 4 5.7088 4 12.8v358.4c0 7.0912-1.784 12.8-4 12.8h-120c-2.216 0-4-5.7088-4-12.8v-358.4c0-7.0912 1.784-12.8 4-12.8z" display="inline" fill="#f5f5f5"/></g><g transform="matrix(1 0 0 .33333 -128 10.667)" display="inline"><path transform="matrix(1.125 0 0 1 -48 -3.6e-7)" x="320" y="64" width="128" height="384" rx="4" ry="12.8" d="m324 64h120c2.216 0 4 5.7088 4 12.8v358.4c0 7.0912-1.784 12.8-4 12.8h-120c-2.216 0-4-5.7088-4-12.8v-358.4c0-7.0912 1.784-12.8 4-12.8z" display="inline" fill="#666"/><path transform="matrix(.75 0 0 1 72 0)" x="320" y="64" width="128" height="384" rx="6.0952382" ry="12.8" d="m326.1 64h115.81c3.3768 0 6.0952 5.7088 6.0952 12.8v358.4c0 7.0912-2.7185 12.8-6.0952 12.8h-115.81c-3.3768 0-6.0952-5.7088-6.0952-12.8v-358.4c0-7.0912 2.7185-12.8 6.0952-12.8z" display="inline" fill="#999"/><path transform="matrix(.375 0 0 1 192 0)" x="320" y="64" width="128" height="384" rx="12.190476" ry="12.8" d="m332.19 64h103.62c6.7535 0 12.19 5.7088 12.19 12.8v358.4c0 7.0912-5.437 12.8-12.19 12.8h-103.62c-6.7535 0-12.19-5.7088-12.19-12.8v-358.4c0-7.0912 5.437-12.8 12.19-12.8z" display="inline" fill="#f5f5f5"/><path transform="matrix(1.125 0 0 .75 -48 112)" x="320" y="64" width="128" height="384" rx="4" ry="12.8" d="m324 64h120c2.216 0 4 5.7088 4 12.8v358.4c0 7.0912-1.784 12.8-4 12.8h-120c-2.216 0-4-5.7088-4-12.8v-358.4c0-7.0912 1.784-12.8 4-12.8z" display="inline" fill="#f5f5f5"/></g></g><g display="none"><path transform="matrix(1.1667 0 0 1.1667 -42.667 -42.667)" x="64" y="64" width="384" height="384" rx="10.075714" ry="13.714285" d="m74.076 64h363.85c5.5819 0 10.076 6.1166 10.076 13.714v356.57c0 7.5977-4.4938 13.714-10.076 13.714h-363.85c-5.5819 0-10.076-6.1166-10.076-13.714v-356.57c0-7.5977 4.4938-13.714 10.076-13.714z" fill="#ccc"/><path transform="matrix(1.1667 0 0 1.1667 -42.667 -42.667)" x="64" y="64" width="384" height="384" rx="10.075714" ry="13.714285" d="m74.076 64h363.85c5.5819 0 10.076 6.1166 10.076 13.714v356.57c0 7.5977-4.4938 13.714-10.076 13.714h-363.85c-5.5819 0-10.076-6.1166-10.076-13.714v-356.57c0-7.5977 4.4938-13.714 10.076-13.714z" display="none" fill="#666"/></g><rect x="32" y="32" width="96" height="448" rx="3.2" ry="4.6667" display="inline" fill="#f5f5f5" stroke-width=".96609"/><g display="inline"><rect x="384" y="32" width="96" height="448" rx="3.2" ry="4.6667" display="inline" fill="#f5f5f5" stroke-width=".96609"/></g><g><g transform="matrix(1.3333 0 0 .35556 -256 192.71)" display="inline"><rect x="312" y="448" width="144" height="360" rx="4.5" ry="12" display="inline" fill="#666" stroke-width="1.9101"/><path transform="matrix(1.125 0 0 .9375 -48 388)" x="320" y="64" width="128" height="384" rx="4" ry="12.8" d="m324 64h120c2.216 0 4 5.7088 4 12.8v358.4c0 7.0912-1.784 12.8-4 12.8h-120c-2.216 0-4-5.7088-4-12.8v-358.4c0-7.0912 1.784-12.8 4-12.8z" display="inline" fill="#f5f5f5"/><path transform="matrix(.75 0 0 .9375 72 388)" x="320" y="64" width="128" height="384" rx="6.0952382" ry="12.8" d="m326.1 64h115.81c3.3768 0 6.0952 5.7088 6.0952 12.8v358.4c0 7.0912-2.7185 12.8-6.0952 12.8h-115.81c-3.3768 0-6.0952-5.7088-6.0952-12.8v-358.4c0-7.0912 2.7185-12.8 6.0952-12.8z" display="inline" fill="#999"/><path transform="matrix(.375 0 0 .9375 192 388)" x="320" y="64" width="128" height="384" rx="12.190476" ry="12.8" d="m332.19 64h103.62c6.7535 0 12.19 5.7088 12.19 12.8v358.4c0 7.0912-5.437 12.8-12.19 12.8h-103.62c-6.7535 0-12.19-5.7088-12.19-12.8v-358.4c0-7.0912 5.437-12.8 12.19-12.8z" display="inline" fill="#666"/><path transform="matrix(1.125 0 0 .70312 -48 493)" x="320" y="64" width="128" height="384" rx="4" ry="12.8" d="m324 64h120c2.216 0 4 5.7088 4 12.8v358.4c0 7.0912-1.784 12.8-4 12.8h-120c-2.216 0-4-5.7088-4-12.8v-358.4c0-7.0912 1.784-12.8 4-12.8z" display="inline" fill="#f5f5f5"/></g><g transform="matrix(1.3333 0 0 .33333 -256 170.67)" display="inline"><path transform="matrix(1.125,0,0,1,-48,0)" x="320" y="64" width="128" height="384" rx="4" ry="12.8" d="m324 64h120c2.216 0 4 5.7088 4 12.8v358.4c0 7.0912-1.784 12.8-4 12.8h-120c-2.216 0-4-5.7088-4-12.8v-358.4c0-7.0912 1.784-12.8 4-12.8z" display="inline" fill="#666"/><path transform="matrix(.75 0 0 1 72 0)" x="320" y="64" width="128" height="384" rx="6.0952382" ry="12.8" d="m326.1 64h115.81c3.3768 0 6.0952 5.7088 6.0952 12.8v358.4c0 7.0912-2.7185 12.8-6.0952 12.8h-115.81c-3.3768 0-6.0952-5.7088-6.0952-12.8v-358.4c0-7.0912 2.7185-12.8 6.0952-12.8z" display="inline" fill="#f5f5f5"/><path transform="matrix(.375 0 0 1 192 0)" x="320" y="64" width="128" height="384" rx="12.190476" ry="12.8" d="m332.19 64h103.62c6.7535 0 12.19 5.7088 12.19 12.8v358.4c0 7.0912-5.437 12.8-12.19 12.8h-103.62c-6.7535 0-12.19-5.7088-12.19-12.8v-358.4c0-7.0912 5.437-12.8 12.19-12.8z" display="inline" fill="#999"/><path transform="matrix(1.125 0 0 .75 -48 112)" x="320" y="64" width="128" height="384" rx="4" ry="12.8" d="m324 64h120c2.216 0 4 5.7088 4 12.8v358.4c0 7.0912-1.784 12.8-4 12.8h-120c-2.216 0-4-5.7088-4-12.8v-358.4c0-7.0912 1.784-12.8 4-12.8z" display="inline" fill="#f5f5f5"/></g><g transform="matrix(1.3333 0 0 .33333 -256 10.667)" display="inline"><path transform="matrix(1.125 0 0 1 -48 -3.6e-7)" x="320" y="64" width="128" height="384" rx="4" ry="12.8" d="m324 64h120c2.216 0 4 5.7088 4 12.8v358.4c0 7.0912-1.784 12.8-4 12.8h-120c-2.216 0-4-5.7088-4-12.8v-358.4c0-7.0912 1.784-12.8 4-12.8z" display="inline" fill="#666"/><path transform="matrix(.75 0 0 1 72 0)" x="320" y="64" width="128" height="384" rx="6.0952382" ry="12.8" d="m326.1 64h115.81c3.3768 0 6.0952 5.7088 6.0952 12.8v358.4c0 7.0912-2.7185 12.8-6.0952 12.8h-115.81c-3.3768 0-6.0952-5.7088-6.0952-12.8v-358.4c0-7.0912 2.7185-12.8 6.0952-12.8z" display="inline" fill="#999"/><path transform="matrix(.375 0 0 1 192 0)" x="320" y="64" width="128" height="384" rx="12.190476" ry="12.8" d="m332.19 64h103.62c6.7535 0 12.19 5.7088 12.19 12.8v358.4c0 7.0912-5.437 12.8-12.19 12.8h-103.62c-6.7535 0-12.19-5.7088-12.19-12.8v-358.4c0-7.0912 5.437-12.8 12.19-12.8z" display="inline" fill="#f5f5f5"/><path transform="matrix(1.125 0 0 .75 -48 112)" x="320" y="64" width="128" height="384" rx="4" ry="12.8" d="m324 64h120c2.216 0 4 5.7088 4 12.8v358.4c0 7.0912-1.784 12.8-4 12.8h-120c-2.216 0-4-5.7088-4-12.8v-358.4c0-7.0912 1.784-12.8 4-12.8z" display="inline" fill="#f5f5f5"/></g></g><g display="none"><path transform="matrix(1.1667 0 0 1.1667 -42.667 -42.667)" x="64" y="64" width="384" height="384" rx="10.075714" ry="13.714285" d="m74.076 64h363.85c5.5819 0 10.076 6.1166 10.076 13.714v356.57c0 7.5977-4.4938 13.714-10.076 13.714h-363.85c-5.5819 0-10.076-6.1166-10.076-13.714v-356.57c0-7.5977 4.4938-13.714 10.076-13.714z" fill="#ccc"/><path transform="matrix(1.1667 0 0 1.1667 -42.667 -42.667)" x="64" y="64" width="384" height="384" rx="10.075714" ry="13.714285" d="m74.076 64h363.85c5.5819 0 10.076 6.1166 10.076 13.714v356.57c0 7.5977-4.4938 13.714-10.076 13.714h-363.85c-5.5819 0-10.076-6.1166-10.076-13.714v-356.57c0-7.5977 4.4938-13.714 10.076-13.714z" display="none" fill="#666"/></g><rect x="32" y="32" width="96" height="448" rx="16" ry="16" display="inline" fill="#f5f5f5" stroke-width=".96609"/><g display="inline"><rect x="384" y="32" width="96" height="448" rx="16" ry="16" display="inline" fill="#f5f5f5" stroke-width=".96609"/></g><g><g transform="matrix(1.3333 0 0 .35556 -256 192.71)" display="inline"><rect x="312" y="448" width="144" height="360" rx="4.5" ry="12" display="inline" fill="#666" stroke-width="1.9101"/><path transform="matrix(1.125 0 0 .9375 -48 388)" x="320" y="64" width="128" height="384" rx="4" ry="12.8" d="m324 64h120c2.216 0 4 5.7088 4 12.8v358.4c0 7.0912-1.784 12.8-4 12.8h-120c-2.216 0-4-5.7088-4-12.8v-358.4c0-7.0912 1.784-12.8 4-12.8z" display="inline" fill="#f5f5f5"/><path transform="matrix(.75 0 0 .9375 72 388)" x="320" y="64" width="128" height="384" rx="6.0952382" ry="12.8" d="m326.1 64h115.81c3.3768 0 6.0952 5.7088 6.0952 12.8v358.4c0 7.0912-2.7185 12.8-6.0952 12.8h-115.81c-3.3768 0-6.0952-5.7088-6.0952-12.8v-358.4c0-7.0912 2.7185-12.8 6.0952-12.8z" display="inline" fill="#999"/><path transform="matrix(.375 0 0 .9375 192 388)" x="320" y="64" width="128" height="384" rx="12.190476" ry="12.8" d="m332.19 64h103.62c6.7535 0 12.19 5.7088 12.19 12.8v358.4c0 7.0912-5.437 12.8-12.19 12.8h-103.62c-6.7535 0-12.19-5.7088-12.19-12.8v-358.4c0-7.0912 5.437-12.8 12.19-12.8z" display="inline" fill="#666"/><path transform="matrix(1.125 0 0 .70312 -48 493)" x="320" y="64" width="128" height="384" rx="4" ry="12.8" d="m324 64h120c2.216 0 4 5.7088 4 12.8v358.4c0 7.0912-1.784 12.8-4 12.8h-120c-2.216 0-4-5.7088-4-12.8v-358.4c0-7.0912 1.784-12.8 4-12.8z" display="inline" fill="#ccc"/></g><g transform="matrix(1.3333 0 0 .33333 -256 170.67)" display="inline"><path transform="matrix(1.125,0,0,1,-48,0)" x="320" y="64" width="128" height="384" rx="4" ry="12.8" d="m324 64h120c2.216 0 4 5.7088 4 12.8v358.4c0 7.0912-1.784 12.8-4 12.8h-120c-2.216 0-4-5.7088-4-12.8v-358.4c0-7.0912 1.784-12.8 4-12.8z" display="inline" fill="#666"/><path transform="matrix(.75 0 0 1 72 0)" x="320" y="64" width="128" height="384" rx="6.0952382" ry="12.8" d="m326.1 64h115.81c3.3768 0 6.0952 5.7088 6.0952 12.8v358.4c0 7.0912-2.7185 12.8-6.0952 12.8h-115.81c-3.3768 0-6.0952-5.7088-6.0952-12.8v-358.4c0-7.0912 2.7185-12.8 6.0952-12.8z" display="inline" fill="#f5f5f5"/><path transform="matrix(.375 0 0 1 192 0)" x="320" y="64" width="128" height="384" rx="12.190476" ry="12.8" d="m332.19 64h103.62c6.7535 0 12.19 5.7088 12.19 12.8v358.4c0 7.0912-5.437 12.8-12.19 12.8h-103.62c-6.7535 0-12.19-5.7088-12.19-12.8v-358.4c0-7.0912 5.437-12.8 12.19-12.8z" display="inline" fill="#999"/><path transform="matrix(1.125 0 0 .75 -48 112)" x="320" y="64" width="128" height="384" rx="4" ry="12.8" d="m324 64h120c2.216 0 4 5.7088 4 12.8v358.4c0 7.0912-1.784 12.8-4 12.8h-120c-2.216 0-4-5.7088-4-12.8v-358.4c0-7.0912 1.784-12.8 4-12.8z" display="inline" fill="#ccc"/></g><g transform="matrix(1.3333 0 0 .33333 -256 10.667)" display="inline"><path transform="matrix(1.125 0 0 1 -48 -3.6e-7)" x="320" y="64" width="128" height="384" rx="4" ry="12.8" d="m324 64h120c2.216 0 4 5.7088 4 12.8v358.4c0 7.0912-1.784 12.8-4 12.8h-120c-2.216 0-4-5.7088-4-12.8v-358.4c0-7.0912 1.784-12.8 4-12.8z" display="inline" fill="#666"/><path transform="matrix(.75 0 0 1 72 0)" x="320" y="64" width="128" height="384" rx="6.0952382" ry="12.8" d="m326.1 64h115.81c3.3768 0 6.0952 5.7088 6.0952 12.8v358.4c0 7.0912-2.7185 12.8-6.0952 12.8h-115.81c-3.3768 0-6.0952-5.7088-6.0952-12.8v-358.4c0-7.0912 2.7185-12.8 6.0952-12.8z" display="inline" fill="#999"/><path transform="matrix(.375 0 0 1 192 0)" x="320" y="64" width="128" height="384" rx="12.190476" ry="12.8" d="m332.19 64h103.62c6.7535 0 12.19 5.7088 12.19 12.8v358.4c0 7.0912-5.437 12.8-12.19 12.8h-103.62c-6.7535 0-12.19-5.7088-12.19-12.8v-358.4c0-7.0912 5.437-12.8 12.19-12.8z" display="inline" fill="#f5f5f5"/><path transform="matrix(1.125 0 0 .75 -48 112)" x="320" y="64" width="128" height="384" rx="4" ry="12.8" d="m324 64h120c2.216 0 4 5.7088 4 12.8v358.4c0 7.0912-1.784 12.8-4 12.8h-120c-2.216 0-4-5.7088-4-12.8v-358.4c0-7.0912 1.784-12.8 4-12.8z" display="inline" fill="#ccc"/></g></g></g><g transform="scale(.125)"><g display="none"><path transform="matrix(1.1667 0 0 1.1667 -42.667 -42.667)" x="64" y="64" width="384" height="384" rx="10.075714" ry="13.714285" d="m74.076 64h363.85c5.5819 0 10.076 6.1166 10.076 13.714v356.57c0 7.5977-4.4938 13.714-10.076 13.714h-363.85c-5.5819 0-10.076-6.1166-10.076-13.714v-356.57c0-7.5977 4.4938-13.714 10.076-13.714z" fill="#ccc"/><path transform="matrix(1.1667 0 0 1.1667 -42.667 -42.667)" x="64" y="64" width="384" height="384" rx="10.075714" ry="13.714285" d="m74.076 64h363.85c5.5819 0 10.076 6.1166 10.076 13.714v356.57c0 7.5977-4.4938 13.714-10.076 13.714h-363.85c-5.5819 0-10.076-6.1166-10.076-13.714v-356.57c0-7.5977 4.4938-13.714 10.076-13.714z" display="none" fill="#666"/></g><rect x="32" y="32" width="96" height="448" rx="16" ry="16" fill="#f5f5f5" stroke-width=".96609"/><g><rect x="384" y="32" width="96" height="448" rx="16" ry="16" fill="#f5f5f5" stroke-width=".96609"/></g><g><g transform="matrix(1.3333 0 0 .35556 -256 192.71)"><rect x="312" y="448" width="144" height="360" rx="4.5" ry="12" fill="#666" stroke-width="1.9101"/><path transform="matrix(1.125 0 0 .9375 -48 388)" x="320" y="64" width="128" height="384" rx="4" ry="12.8" d="m324 64h120c2.216 0 4 5.7088 4 12.8v358.4c0 7.0912-1.784 12.8-4 12.8h-120c-2.216 0-4-5.7088-4-12.8v-358.4c0-7.0912 1.784-12.8 4-12.8z" fill="#f5f5f5"/><path transform="matrix(.75 0 0 .9375 72 388)" x="320" y="64" width="128" height="384" rx="6.0952382" ry="12.8" d="m326.1 64h115.81c3.3768 0 6.0952 5.7088 6.0952 12.8v358.4c0 7.0912-2.7185 12.8-6.0952 12.8h-115.81c-3.3768 0-6.0952-5.7088-6.0952-12.8v-358.4c0-7.0912 2.7185-12.8 6.0952-12.8z" fill="#999"/><path transform="matrix(.375 0 0 .9375 192 388)" x="320" y="64" width="128" height="384" rx="12.190476" ry="12.8" d="m332.19 64h103.62c6.7535 0 12.19 5.7088 12.19 12.8v358.4c0 7.0912-5.437 12.8-12.19 12.8h-103.62c-6.7535 0-12.19-5.7088-12.19-12.8v-358.4c0-7.0912 5.437-12.8 12.19-12.8z" fill="#666"/><path transform="matrix(1.125 0 0 .70312 -48 493)" x="320" y="64" width="128" height="384" rx="4" ry="12.8" d="m324 64h120c2.216 0 4 5.7088 4 12.8v358.4c0 7.0912-1.784 12.8-4 12.8h-120c-2.216 0-4-5.7088-4-12.8v-358.4c0-7.0912 1.784-12.8 4-12.8z" fill="#f5f5f5"/></g><g transform="matrix(1.3333 0 0 .33333 -256 170.67)"><path transform="matrix(1.125,0,0,1,-48,0)" x="320" y="64" width="128" height="384" rx="4" ry="12.8" d="m324 64h120c2.216 0 4 5.7088 4 12.8v358.4c0 7.0912-1.784 12.8-4 12.8h-120c-2.216 0-4-5.7088-4-12.8v-358.4c0-7.0912 1.784-12.8 4-12.8z" fill="#666"/><path transform="matrix(.75 0 0 1 72 0)" x="320" y="64" width="128" height="384" rx="6.0952382" ry="12.8" d="m326.1 64h115.81c3.3768 0 6.0952 5.7088 6.0952 12.8v358.4c0 7.0912-2.7185 12.8-6.0952 12.8h-115.81c-3.3768 0-6.0952-5.7088-6.0952-12.8v-358.4c0-7.0912 2.7185-12.8 6.0952-12.8z" fill="#f5f5f5"/><path transform="matrix(.375 0 0 1 192 0)" x="320" y="64" width="128" height="384" rx="12.190476" ry="12.8" d="m332.19 64h103.62c6.7535 0 12.19 5.7088 12.19 12.8v358.4c0 7.0912-5.437 12.8-12.19 12.8h-103.62c-6.7535 0-12.19-5.7088-12.19-12.8v-358.4c0-7.0912 5.437-12.8 12.19-12.8z" fill="#999"/><path transform="matrix(1.125 0 0 .75 -48 112)" x="320" y="64" width="128" height="384" rx="4" ry="12.8" d="m324 64h120c2.216 0 4 5.7088 4 12.8v358.4c0 7.0912-1.784 12.8-4 12.8h-120c-2.216 0-4-5.7088-4-12.8v-358.4c0-7.0912 1.784-12.8 4-12.8z" fill="#f5f5f5"/></g><g transform="matrix(1.3333 0 0 .33333 -256 10.667)"><path transform="matrix(1.125 0 0 1 -48 -3.6e-7)" x="320" y="64" width="128" height="384" rx="4" ry="12.8" d="m324 64h120c2.216 0 4 5.7088 4 12.8v358.4c0 7.0912-1.784 12.8-4 12.8h-120c-2.216 0-4-5.7088-4-12.8v-358.4c0-7.0912 1.784-12.8 4-12.8z" fill="#666"/><path transform="matrix(.75 0 0 1 72 0)" x="320" y="64" width="128" height="384" rx="6.0952382" ry="12.8" d="m326.1 64h115.81c3.3768 0 6.0952 5.7088 6.0952 12.8v358.4c0 7.0912-2.7185 12.8-6.0952 12.8h-115.81c-3.3768 0-6.0952-5.7088-6.0952-12.8v-358.4c0-7.0912 2.7185-12.8 6.0952-12.8z" fill="#999"/><path transform="matrix(.375 0 0 1 192 0)" x="320" y="64" width="128" height="384" rx="12.190476" ry="12.8" d="m332.19 64h103.62c6.7535 0 12.19 5.7088 12.19 12.8v358.4c0 7.0912-5.437 12.8-12.19 12.8h-103.62c-6.7535 0-12.19-5.7088-12.19-12.8v-358.4c0-7.0912 5.437-12.8 12.19-12.8z" fill="#f5f5f5"/><path transform="matrix(1.125 0 0 .75 -48 112)" x="320" y="64" width="128" height="384" rx="4" ry="12.8" d="m324 64h120c2.216 0 4 5.7088 4 12.8v358.4c0 7.0912-1.784 12.8-4 12.8h-120c-2.216 0-4-5.7088-4-12.8v-358.4c0-7.0912 1.784-12.8 4-12.8z" fill="#f5f5f5"/></g></g></g></svg>
